<svg xmlns="http://www.w3.org/2000/svg" xmlns:xlink="http://www.w3.org/1999/xlink" width="300" zoomAndPan="magnify" viewBox="0 0 224.87999 341.999987" height="456" preserveAspectRatio="xMidYMid meet" version="1.0"><defs><filter x="0%" y="0%" width="100%" height="100%" id="ff85e573ff"><feColorMatrix values="0 0 0 0 1 0 0 0 0 1 0 0 0 0 1 0 0 0 1 0" color-interpolation-filters="sRGB"/></filter><clipPath id="7a32ec0498"><path d="M 0 150 L 76 150 L 76 341.90625 L 0 341.90625 Z M 0 150 " clip-rule="nonzero"/></clipPath><mask id="04385291d4"><g filter="url(#ff85e573ff)"><rect x="-22.487999" width="269.855988" fill="#000000" y="-34.199999" height="410.399984" fill-opacity="0.1569"/></g></mask><clipPath id="b2e2c8e0cf"><path d="M 0 0.0117188 L 74.960938 0.0117188 L 74.960938 191.90625 L 0 191.90625 Z M 0 0.0117188 " clip-rule="nonzero"/></clipPath><clipPath id="bfb0c37a15"><rect x="0" width="76" y="0" height="192"/></clipPath><clipPath id="43220504fd"><path d="M 0 0.0898438 L 76 0.0898438 L 76 151 L 0 151 Z M 0 0.0898438 " clip-rule="nonzero"/></clipPath><mask id="42495a767b"><g filter="url(#ff85e573ff)"><rect x="-22.487999" width="269.855988" fill="#000000" y="-34.199999" height="410.399984" fill-opacity="0.098"/></g></mask><clipPath id="edb592a1ce"><path d="M 0 0.0898438 L 74.960938 0.0898438 L 74.960938 150.011719 L 0 150.011719 Z M 0 0.0898438 " clip-rule="nonzero"/></clipPath><clipPath id="728dc54882"><path d="M 4.503906 50.089844 C 1.785156 57.777344 0 66.515625 0 75.089844 C 0 83.667969 1.527344 91.921875 4.246094 99.523438 C 4.332031 99.6875 4.332031 99.847656 4.417969 100.011719 C 15.289062 128.570312 44.003906 149.605469 74.960938 150.011719 L 74.960938 0.0898438 C 43.832031 0.496094 15.121094 21.207031 4.503906 50.089844 " clip-rule="nonzero"/></clipPath><clipPath id="52ec4b1851"><rect x="0" width="76" y="0" height="151"/></clipPath><clipPath id="6f2a222d2d"><path d="M 74 0.0898438 L 150 0.0898438 L 150 226 L 74 226 Z M 74 0.0898438 " clip-rule="nonzero"/></clipPath><mask id="c12c9e2313"><g filter="url(#ff85e573ff)"><rect x="-22.487999" width="269.855988" fill="#000000" y="-34.199999" height="410.399984" fill-opacity="0.1294"/></g></mask><clipPath id="ec714bb301"><path d="M 0.960938 0.0898438 L 75.921875 0.0898438 L 75.921875 224.972656 L 0.960938 224.972656 Z M 0.960938 0.0898438 " clip-rule="nonzero"/></clipPath><clipPath id="3f32881153"><path d="M 25.960938 222.808594 C 29.804688 224.113281 34.171875 224.972656 38.460938 224.972656 C 42.75 224.972656 46.875 224.234375 50.675781 222.929688 C 50.757812 222.886719 50.839844 222.886719 50.917969 222.847656 C 65.199219 217.621094 75.71875 203.816406 75.921875 184.738281 L 75.921875 0.0898438 L 0.960938 0.0898438 L 0.960938 184.601562 C 1.164062 203.898438 11.519531 217.703125 25.960938 222.808594 " clip-rule="nonzero"/></clipPath><clipPath id="089583d3fb"><rect x="0" width="76" y="0" height="226"/></clipPath><mask id="6c73f6ca06"><g filter="url(#ff85e573ff)"><rect x="-22.487999" width="269.855988" fill="#000000" y="-34.199999" height="410.399984" fill-opacity="0.098"/></g></mask><clipPath id="38d0ebc144"><path d="M 0.960938 0.0117188 L 75.921875 0.0117188 L 75.921875 74.972656 L 0.960938 74.972656 Z M 0.960938 0.0117188 " clip-rule="nonzero"/></clipPath><clipPath id="b9b729c01a"><path d="M 38.441406 0.0117188 C 17.742188 0.0117188 0.960938 16.792969 0.960938 37.492188 C 0.960938 58.191406 17.742188 74.972656 38.441406 74.972656 C 59.140625 74.972656 75.921875 58.191406 75.921875 37.492188 C 75.921875 16.792969 59.140625 0.0117188 38.441406 0.0117188 " clip-rule="nonzero"/></clipPath><clipPath id="cf16a42103"><rect x="0" width="76" y="0" height="76"/></clipPath><clipPath id="dd2ab0e1d8"><path d="M 149 0.0898438 L 224.761719 0.0898438 L 224.761719 195 L 149 195 Z M 149 0.0898438 " clip-rule="nonzero"/></clipPath><mask id="74c81181e8"><g filter="url(#ff85e573ff)"><rect x="-22.487999" width="269.855988" fill="#000000" y="-34.199999" height="410.399984" fill-opacity="0.1569"/></g></mask><clipPath id="e98c7cac38"><path d="M 0.921875 0.0898438 L 75.761719 0.0898438 L 75.761719 194.027344 L 0.921875 194.027344 Z M 0.921875 0.0898438 " clip-rule="nonzero"/></clipPath><clipPath id="4c24b52f50"><rect x="0" width="76" y="0" height="195"/></clipPath><clipPath id="194d65202b"><path d="M 149 193 L 224.761719 193 L 224.761719 341.90625 L 149 341.90625 Z M 149 193 " clip-rule="nonzero"/></clipPath><mask id="f7cee9103e"><g filter="url(#ff85e573ff)"><rect x="-22.487999" width="269.855988" fill="#000000" y="-34.199999" height="410.399984" fill-opacity="0.098"/></g></mask><clipPath id="918876dba1"><path d="M 0.917969 1 L 75.761719 1 L 75.761719 148.90625 L 0.917969 148.90625 Z M 0.917969 1 " clip-rule="nonzero"/></clipPath><clipPath id="538b2853d7"><path d="M 71.375 99.589844 C 74.09375 92.007812 75.878906 83.390625 75.878906 74.929688 C 75.878906 66.46875 74.347656 58.332031 71.628906 50.828125 C 71.546875 50.667969 71.546875 50.511719 71.460938 50.351562 C 60.585938 22.179688 31.875 1.429688 0.917969 1.03125 L 0.917969 148.90625 C 32.042969 148.507812 60.757812 128.078125 71.375 99.589844 " clip-rule="nonzero"/></clipPath><clipPath id="e3d2f3be6d"><rect x="0" width="76" y="0" height="149"/></clipPath><clipPath id="e4c991bc10"><path d="M 74 224 L 150 224 L 150 341.90625 L 74 341.90625 Z M 74 224 " clip-rule="nonzero"/></clipPath><mask id="74b1c94795"><g filter="url(#ff85e573ff)"><rect x="-22.487999" width="269.855988" fill="#000000" y="-34.199999" height="410.399984" fill-opacity="0.1294"/></g></mask><clipPath id="0537fd2d10"><path d="M 0.960938 0.972656 L 75.921875 0.972656 L 75.921875 117.90625 L 0.960938 117.90625 Z M 0.960938 0.972656 " clip-rule="nonzero"/></clipPath><clipPath id="a0e4cf11c0"><rect x="0" width="76" y="0" height="118"/></clipPath></defs><g clip-path="url(#7a32ec0498)"><g mask="url(#04385291d4)"><g transform="matrix(1, 0, 0, 1, 0, 150)"><g clip-path="url(#bfb0c37a15)"><g clip-path="url(#b2e2c8e0cf)"><path fill="#2e7f77" d="M 0 0.0117188 L 74.960938 0.0117188 L 74.960938 191.910156 L 0 191.910156 Z M 0 0.0117188 " fill-opacity="1" fill-rule="nonzero"/></g></g></g></g></g><g clip-path="url(#43220504fd)"><g mask="url(#42495a767b)"><g transform="matrix(1, 0, 0, 1, 0, 0.000000000000011616)"><g clip-path="url(#52ec4b1851)"><g clip-path="url(#edb592a1ce)"><g clip-path="url(#728dc54882)"><path fill="#2e7f77" d="M 74.960938 0.0898438 L 74.960938 150.011719 L 0 150.011719 L 0 0.0898438 Z M 74.960938 0.0898438 " fill-opacity="1" fill-rule="nonzero"/></g></g></g></g></g></g><g clip-path="url(#6f2a222d2d)"><g mask="url(#c12c9e2313)"><g transform="matrix(1, 0, 0, 1, 74, 0.000000000000011616)"><g clip-path="url(#089583d3fb)"><g clip-path="url(#ec714bb301)"><g clip-path="url(#3f32881153)"><path fill="#2e7f77" d="M 0.960938 0.0898438 L 75.921875 0.0898438 L 75.921875 224.972656 L 0.960938 224.972656 Z M 0.960938 0.0898438 " fill-opacity="1" fill-rule="nonzero"/></g></g></g></g></g></g><g mask="url(#6c73f6ca06)"><g transform="matrix(1, 0, 0, 1, 74, 150)"><g clip-path="url(#cf16a42103)"><g clip-path="url(#38d0ebc144)"><g clip-path="url(#b9b729c01a)"><path fill="#2e7f77" d="M 0.960938 0.0117188 L 75.921875 0.0117188 L 75.921875 74.972656 L 0.960938 74.972656 Z M 0.960938 0.0117188 " fill-opacity="1" fill-rule="nonzero"/></g></g></g></g></g><g clip-path="url(#dd2ab0e1d8)"><g mask="url(#74c81181e8)"><g transform="matrix(1, 0, 0, 1, 149, 0.000000000000011616)"><g clip-path="url(#4c24b52f50)"><g clip-path="url(#e98c7cac38)"><path fill="#2e7f77" d="M 75.878906 194.027344 L 0.921875 194.027344 L 0.921875 -0.121094 L 75.878906 -0.121094 Z M 75.878906 194.027344 " fill-opacity="1" fill-rule="nonzero"/></g></g></g></g></g><g clip-path="url(#194d65202b)"><g mask="url(#f7cee9103e)"><g transform="matrix(1, 0, 0, 1, 149, 193)"><g clip-path="url(#e3d2f3be6d)"><g clip-path="url(#918876dba1)"><g clip-path="url(#538b2853d7)"><path fill="#2e7f77" d="M 0.917969 148.90625 L 0.917969 1.234375 L 75.878906 1.234375 L 75.878906 148.90625 Z M 0.917969 148.90625 " fill-opacity="1" fill-rule="nonzero"/></g></g></g></g></g></g><g clip-path="url(#e4c991bc10)"><g mask="url(#74b1c94795)"><g transform="matrix(1, 0, 0, 1, 74, 224)"><g clip-path="url(#a0e4cf11c0)"><g clip-path="url(#0537fd2d10)"><path fill="#2e7f77" d="M 0.960938 0.972656 L 75.921875 0.972656 L 75.921875 117.910156 L 0.960938 117.910156 Z M 0.960938 0.972656 " fill-opacity="1" fill-rule="nonzero"/></g></g></g></g></g></svg>