<svg xmlns="http://www.w3.org/2000/svg" xmlns:xlink="http://www.w3.org/1999/xlink" width="40" zoomAndPan="magnify" viewBox="0 0 30 30.000001" height="40" preserveAspectRatio="xMidYMid meet" version="1.0"><defs><filter x="0%" y="0%" width="100%" height="100%" id="b47639196b"><feColorMatrix values="0 0 0 0 1 0 0 0 0 1 0 0 0 0 1 0 0 0 1 0" color-interpolation-filters="sRGB"/></filter><clipPath id="8c18c7bbd5"><path d="M 0.484375 0 L 29.515625 0 L 29.515625 29.03125 L 0.484375 29.03125 Z M 0.484375 0 " clip-rule="nonzero"/></clipPath><mask id="0eca85586c"><g filter="url(#b47639196b)"><rect x="-3" width="36" fill="#000000" y="-3" height="36.000001" fill-opacity="0.9373"/></g></mask><clipPath id="c953ea8560"><path d="M 0.484375 0 L 29.515625 0 L 29.515625 29.03125 L 0.484375 29.03125 Z M 0.484375 0 " clip-rule="nonzero"/></clipPath><clipPath id="5a9bbbbc28"><rect x="0" width="30" y="0" height="30"/></clipPath></defs><g clip-path="url(#8c18c7bbd5)"><g mask="url(#0eca85586c)"><g transform="matrix(1, 0, 0, 1, 0, 0.000000000000005692)"><g clip-path="url(#5a9bbbbc28)"><g clip-path="url(#c953ea8560)"><path fill="#fcfcfc" d="M 0.484375 25.289062 C 0.484375 27.355469 2.160156 29.03125 4.226562 29.03125 L 25.773438 29.03125 C 27.839844 29.03125 29.515625 27.355469 29.515625 25.289062 L 29.515625 3.742188 C 29.515625 1.675781 27.839844 0 25.773438 0 L 4.226562 0 C 2.160156 0 0.484375 1.675781 0.484375 3.742188 Z M 0.484375 25.289062 " fill-opacity="1" fill-rule="nonzero"/></g><path fill="#cb5041" d="M 12.523438 12.84375 L 12.523438 8.730469 L 16.140625 8.730469 C 16.488281 8.730469 16.820312 8.757812 17.140625 8.816406 C 17.457031 8.875 17.742188 8.976562 17.988281 9.125 C 18.234375 9.273438 18.433594 9.476562 18.578125 9.738281 C 18.726562 10.003906 18.800781 10.339844 18.800781 10.75 C 18.800781 11.488281 18.578125 12.019531 18.136719 12.351562 C 17.695312 12.679688 17.125 12.84375 16.4375 12.84375 Z M 8.65625 5.726562 L 8.65625 23.304688 L 17.175781 23.304688 C 17.964844 23.304688 18.730469 23.207031 19.476562 23.007812 C 20.226562 22.8125 20.890625 22.507812 21.472656 22.097656 C 22.054688 21.6875 22.519531 21.160156 22.863281 20.511719 C 23.207031 19.863281 23.378906 19.09375 23.378906 18.207031 C 23.378906 17.109375 23.113281 16.167969 22.582031 15.390625 C 22.046875 14.609375 21.238281 14.066406 20.15625 13.753906 C 20.941406 13.375 21.539062 12.890625 21.9375 12.300781 C 22.34375 11.710938 22.542969 10.972656 22.542969 10.085938 C 22.542969 9.265625 22.40625 8.574219 22.136719 8.015625 C 21.867188 7.457031 21.484375 7.011719 20.992188 6.675781 C 20.5 6.339844 19.910156 6.097656 19.21875 5.949219 C 18.53125 5.800781 17.765625 5.726562 16.929688 5.726562 Z M 12.523438 20.300781 L 12.523438 15.476562 L 16.734375 15.476562 C 17.570312 15.476562 18.242188 15.667969 18.75 16.054688 C 19.261719 16.441406 19.515625 17.085938 19.515625 17.988281 C 19.515625 18.445312 19.4375 18.824219 19.28125 19.121094 C 19.125 19.414062 18.914062 19.648438 18.652344 19.820312 C 18.390625 19.992188 18.085938 20.117188 17.742188 20.191406 C 17.398438 20.265625 17.035156 20.300781 16.660156 20.300781 Z M 12.523438 20.300781 " fill-opacity="1" fill-rule="nonzero"/></g></g></g></g></svg>