<svg xmlns="http://www.w3.org/2000/svg" xmlns:xlink="http://www.w3.org/1999/xlink" width="40" zoomAndPan="magnify" viewBox="0 0 30 30.000001" height="40" preserveAspectRatio="xMidYMid meet" version="1.0"><defs><filter x="0%" y="0%" width="100%" height="100%" id="c314709c1f"><feColorMatrix values="0 0 0 0 1 0 0 0 0 1 0 0 0 0 1 0 0 0 1 0" color-interpolation-filters="sRGB"/></filter><mask id="da46d5fea4"><g filter="url(#c314709c1f)"><rect x="-3" width="36" fill="#000000" y="-3" height="36.000001" fill-opacity="0.9373"/></g></mask><clipPath id="e0672ffa0e"><path d="M 0.277344 0 L 25.679688 0 L 25.679688 28.710938 L 0.277344 28.710938 Z M 0.277344 0 " clip-rule="nonzero"/></clipPath><clipPath id="9cad6e8c48"><rect x="0" width="26" y="0" height="29"/></clipPath></defs><g mask="url(#da46d5fea4)"><g transform="matrix(1, 0, 0, 1, 2, 0.000000000000005692)"><g clip-path="url(#9cad6e8c48)"><g clip-path="url(#e0672ffa0e)"><path fill="#fffefb" d="M 12.96875 28.710938 L 2.601562 25.851562 L 0.289062 0.136719 L 25.675781 0.136719 L 23.363281 25.847656 L 12.96875 28.707031 Z M 12.96875 28.710938 " fill-opacity="1" fill-rule="nonzero"/></g><path fill="#fffefb" d="M 21.382812 24.210938 L 23.359375 2.238281 L 12.984375 2.238281 L 12.984375 26.523438 Z M 21.382812 24.210938 " fill-opacity="1" fill-rule="nonzero"/><path fill="#cb5041" d="M 5.585938 11.777344 L 5.871094 14.929688 L 12.984375 14.929688 L 12.984375 11.777344 Z M 5.585938 11.777344 " fill-opacity="1" fill-rule="nonzero"/><path fill="#cb5041" d="M 5.015625 5.390625 L 5.304688 8.546875 L 12.984375 8.546875 L 12.984375 5.390625 Z M 5.015625 5.390625 " fill-opacity="1" fill-rule="nonzero"/><path fill="#cb5041" d="M 12.984375 19.96875 L 12.96875 19.972656 L 9.429688 19.023438 L 9.203125 16.507812 L 6.011719 16.507812 L 6.457031 21.460938 L 12.96875 23.253906 L 12.984375 23.25 Z M 12.984375 19.96875 " fill-opacity="1" fill-rule="nonzero"/><path fill="#cb5041" d="M 20.359375 11.777344 L 20.933594 5.390625 L 12.972656 5.390625 L 12.972656 8.546875 L 17.449219 8.546875 L 17.160156 11.777344 L 12.972656 11.777344 L 12.972656 14.929688 L 16.886719 14.929688 L 16.515625 19.019531 L 12.972656 19.96875 L 12.972656 23.25 L 19.488281 21.460938 L 19.535156 20.925781 L 20.28125 12.621094 Z M 20.359375 11.777344 " fill-opacity="1" fill-rule="nonzero"/></g></g></g></svg>