<svg xmlns="http://www.w3.org/2000/svg" xmlns:xlink="http://www.w3.org/1999/xlink" width="40" zoomAndPan="magnify" viewBox="0 0 30 30.000001" height="40" preserveAspectRatio="xMidYMid meet" version="1.0"><defs><filter x="0%" y="0%" width="100%" height="100%" id="a21c3b22e7"><feColorMatrix values="0 0 0 0 1 0 0 0 0 1 0 0 0 0 1 0 0 0 1 0" color-interpolation-filters="sRGB"/></filter><clipPath id="f4c93aa206"><path d="M 0.484375 0 L 29.515625 0 L 29.515625 29.03125 L 0.484375 29.03125 Z M 0.484375 0 " clip-rule="nonzero"/></clipPath><mask id="32a26faa7f"><g filter="url(#a21c3b22e7)"><rect x="-3" width="36" fill="#000000" y="-3" height="36.000001" fill-opacity="0.9373"/></g></mask><clipPath id="ffc0c93b62"><path d="M 0.484375 0 L 29.515625 0 L 29.515625 29 L 0.484375 29 Z M 0.484375 0 " clip-rule="nonzero"/></clipPath><clipPath id="f4e7b30fc3"><rect x="0" width="30" y="0" height="30"/></clipPath></defs><g clip-path="url(#f4c93aa206)"><g mask="url(#32a26faa7f)"><g transform="matrix(1, 0, 0, 1, 0, 0.000000000000005692)"><g clip-path="url(#f4e7b30fc3)"><g clip-path="url(#ffc0c93b62)"><path fill="#fffefb" d="M 28.796875 13.238281 L 16.277344 0.71875 C 15.558594 0 14.386719 0 13.664062 0.71875 L 11.066406 3.320312 L 14.363281 6.617188 C 15.128906 6.359375 16.007812 6.53125 16.621094 7.144531 C 17.234375 7.757812 17.40625 8.644531 17.140625 9.414062 L 20.320312 12.59375 C 21.085938 12.328125 21.976562 12.496094 22.589844 13.113281 C 23.449219 13.972656 23.449219 15.363281 22.589844 16.21875 C 21.730469 17.078125 20.339844 17.078125 19.480469 16.21875 C 18.835938 15.574219 18.675781 14.625 19.003906 13.832031 L 16.039062 10.867188 L 16.039062 18.667969 C 16.246094 18.769531 16.445312 18.90625 16.621094 19.082031 C 17.476562 19.941406 17.476562 21.332031 16.621094 22.191406 C 15.761719 23.046875 14.371094 23.046875 13.511719 22.191406 C 12.65625 21.332031 12.65625 19.941406 13.511719 19.082031 C 13.722656 18.871094 13.96875 18.710938 14.230469 18.601562 L 14.230469 10.730469 C 13.96875 10.621094 13.726562 10.464844 13.511719 10.25 C 12.863281 9.601562 12.707031 8.648438 13.039062 7.847656 L 9.789062 4.597656 L 1.203125 13.179688 C 0.484375 13.902344 0.484375 15.070312 1.203125 15.792969 L 13.722656 28.3125 C 14.445312 29.03125 15.613281 29.03125 16.335938 28.3125 L 28.796875 15.851562 C 29.515625 15.128906 29.515625 13.960938 28.796875 13.238281 " fill-opacity="1" fill-rule="nonzero"/></g></g></g></g></g></svg>