<svg xmlns="http://www.w3.org/2000/svg" xmlns:xlink="http://www.w3.org/1999/xlink" width="40" zoomAndPan="magnify" viewBox="0 0 30 30.000001" height="40" preserveAspectRatio="xMidYMid meet" version="1.0"><defs><filter x="0%" y="0%" width="100%" height="100%" id="d1ed3ae5a4"><feColorMatrix values="0 0 0 0 1 0 0 0 0 1 0 0 0 0 1 0 0 0 1 0" color-interpolation-filters="sRGB"/></filter><clipPath id="e3647a359d"><path d="M 2 0 L 28 0 L 28 29.03125 L 2 29.03125 Z M 2 0 " clip-rule="nonzero"/></clipPath><mask id="422df99761"><g filter="url(#d1ed3ae5a4)"><rect x="-3" width="36" fill="#000000" y="-3" height="36.000001" fill-opacity="0.9373"/></g></mask><clipPath id="83e03c25e0"><path d="M 0.339844 0.230469 L 25.742188 0.230469 L 25.742188 28.886719 L 0.339844 28.886719 Z M 0.339844 0.230469 " clip-rule="nonzero"/></clipPath><clipPath id="fcc608308d"><rect x="0" width="26" y="0" height="30"/></clipPath></defs><g clip-path="url(#e3647a359d)"><g mask="url(#422df99761)"><g transform="matrix(1, 0, 0, 1, 2, 0.00000000000000569)"><g clip-path="url(#fcc608308d)"><g clip-path="url(#83e03c25e0)"><path fill="#fffefb" d="M 25.734375 0.308594 L 23.421875 26.023438 L 13.03125 28.882812 L 2.664062 26.027344 L 0.355469 0.308594 L 25.738281 0.308594 Z M 25.734375 0.308594 " fill-opacity="1" fill-rule="nonzero"/></g><path fill="#fffefb" d="M 13.046875 26.699219 L 21.445312 24.386719 L 23.421875 2.414062 L 13.046875 2.414062 Z M 13.046875 26.699219 " fill-opacity="1" fill-rule="nonzero"/><path fill="#cb5041" d="M 8.550781 8.722656 L 13.046875 8.722656 L 13.046875 5.566406 L 5.078125 5.566406 L 5.152344 6.414062 L 5.933594 15.105469 L 13.046875 15.105469 L 13.046875 11.953125 L 8.839844 11.953125 Z M 8.550781 8.722656 " fill-opacity="1" fill-rule="nonzero"/><path fill="#cb5041" d="M 9.265625 16.683594 L 6.078125 16.683594 L 6.523438 21.636719 L 13.03125 23.429688 L 13.046875 23.425781 L 13.046875 20.144531 L 13.03125 20.148438 L 9.492188 19.199219 Z M 9.265625 16.683594 " fill-opacity="1" fill-rule="nonzero"/><path fill="#cb5041" d="M 13.035156 15.105469 L 16.949219 15.105469 L 16.578125 19.195312 L 13.035156 20.144531 L 13.035156 23.425781 L 19.546875 21.636719 L 19.597656 21.101562 L 20.34375 12.796875 L 20.421875 11.953125 L 13.035156 11.953125 Z M 13.035156 15.105469 " fill-opacity="1" fill-rule="nonzero"/><path fill="#cb5041" d="M 13.035156 8.714844 L 13.035156 8.722656 L 20.710938 8.722656 L 20.773438 8.011719 L 20.917969 6.414062 L 20.992188 5.566406 L 13.035156 5.566406 Z M 13.035156 8.714844 " fill-opacity="1" fill-rule="nonzero"/></g></g></g></g></svg>