<svg xmlns="http://www.w3.org/2000/svg" xmlns:xlink="http://www.w3.org/1999/xlink" width="40" zoomAndPan="magnify" viewBox="0 0 30 30.000001" height="40" preserveAspectRatio="xMidYMid meet" version="1.0"><defs><filter x="0%" y="0%" width="100%" height="100%" id="0dc3c82c6e"><feColorMatrix values="0 0 0 0 1 0 0 0 0 1 0 0 0 0 1 0 0 0 1 0" color-interpolation-filters="sRGB"/></filter><clipPath id="4c6a1ce5be"><path d="M 0.484375 1 L 29.515625 1 L 29.515625 28 L 0.484375 28 Z M 0.484375 1 " clip-rule="nonzero"/></clipPath><mask id="11d2de3da9"><g filter="url(#0dc3c82c6e)"><rect x="-3" width="36" fill="#000000" y="-3" height="36.000001" fill-opacity="0.9373"/></g></mask><clipPath id="297fe8dc3d"><path d="M 0.484375 0.394531 L 29.515625 0.394531 L 29.515625 26.40625 L 0.484375 26.40625 Z M 0.484375 0.394531 " clip-rule="nonzero"/></clipPath><clipPath id="1043522361"><rect x="0" width="30" y="0" height="27"/></clipPath></defs><g clip-path="url(#4c6a1ce5be)"><g mask="url(#11d2de3da9)"><g transform="matrix(1, 0, 0, 1, 0, 1)"><g clip-path="url(#1043522361)"><g clip-path="url(#297fe8dc3d)"><path fill="#fcfcfc" d="M 24.34375 8.964844 C 24.042969 8.859375 23.730469 8.761719 23.410156 8.671875 C 23.460938 8.457031 23.511719 8.242188 23.554688 8.035156 C 24.257812 4.609375 23.796875 1.851562 22.21875 0.941406 C 20.707031 0.0703125 18.234375 0.980469 15.734375 3.148438 C 15.496094 3.359375 15.253906 3.578125 15.011719 3.8125 C 14.851562 3.660156 14.691406 3.511719 14.535156 3.367188 C 11.914062 1.046875 9.289062 0.0664062 7.714844 0.980469 C 6.203125 1.851562 5.753906 4.445312 6.390625 7.695312 C 6.453125 8.007812 6.523438 8.328125 6.605469 8.652344 C 6.234375 8.757812 5.875 8.871094 5.53125 8.988281 C 2.460938 10.058594 0.503906 11.734375 0.503906 13.472656 C 0.503906 15.265625 2.605469 17.066406 5.804688 18.160156 C 6.054688 18.246094 6.320312 18.324219 6.589844 18.402344 C 6.5 18.753906 6.425781 19.101562 6.359375 19.4375 C 5.753906 22.625 6.226562 25.160156 7.734375 26.027344 C 9.292969 26.925781 11.90625 26.003906 14.449219 23.78125 C 14.648438 23.605469 14.851562 23.417969 15.054688 23.226562 C 15.316406 23.476562 15.578125 23.714844 15.835938 23.9375 C 18.300781 26.054688 20.734375 26.910156 22.242188 26.042969 C 23.796875 25.144531 24.300781 22.421875 23.644531 19.109375 C 23.59375 18.859375 23.535156 18.601562 23.472656 18.335938 C 23.65625 18.28125 23.835938 18.226562 24.011719 18.167969 C 27.335938 17.066406 29.496094 15.289062 29.496094 13.472656 C 29.496094 11.726562 27.472656 10.042969 24.34375 8.964844 Z M 23.621094 16.996094 C 23.464844 17.046875 23.300781 17.097656 23.132812 17.144531 C 22.769531 15.988281 22.273438 14.753906 21.664062 13.476562 C 22.246094 12.234375 22.71875 11.015625 23.078125 9.863281 C 23.375 9.949219 23.660156 10.039062 23.9375 10.132812 C 26.621094 11.058594 28.257812 12.421875 28.257812 13.472656 C 28.257812 14.589844 26.492188 16.042969 23.621094 16.996094 Z M 22.429688 19.351562 C 22.722656 20.816406 22.761719 22.136719 22.570312 23.171875 C 22.398438 24.101562 22.050781 24.722656 21.621094 24.96875 C 20.707031 25.5 18.753906 24.8125 16.644531 23 C 16.402344 22.792969 16.160156 22.570312 15.917969 22.335938 C 16.734375 21.445312 17.550781 20.40625 18.347656 19.253906 C 19.746094 19.132812 21.070312 18.929688 22.273438 18.652344 C 22.332031 18.890625 22.386719 19.121094 22.429688 19.351562 Z M 10.386719 24.878906 C 9.496094 25.195312 8.785156 25.203125 8.355469 24.957031 C 7.441406 24.429688 7.058594 22.394531 7.578125 19.667969 C 7.636719 19.355469 7.707031 19.035156 7.789062 18.707031 C 8.976562 18.96875 10.292969 19.15625 11.695312 19.269531 C 12.5 20.398438 13.339844 21.433594 14.1875 22.339844 C 14 22.519531 13.816406 22.691406 13.632812 22.851562 C 12.507812 23.832031 11.382812 24.53125 10.386719 24.878906 Z M 6.207031 16.988281 C 4.792969 16.503906 3.625 15.878906 2.824219 15.191406 C 2.105469 14.578125 1.742188 13.96875 1.742188 13.472656 C 1.742188 12.417969 3.316406 11.070312 5.941406 10.15625 C 6.257812 10.046875 6.59375 9.941406 6.9375 9.84375 C 7.300781 11.023438 7.777344 12.257812 8.351562 13.5 C 7.769531 14.765625 7.289062 16.019531 6.921875 17.210938 C 6.675781 17.140625 6.433594 17.066406 6.207031 16.988281 Z M 7.605469 7.457031 C 7.0625 4.675781 7.425781 2.578125 8.335938 2.050781 C 9.304688 1.488281 11.449219 2.289062 13.710938 4.292969 C 13.855469 4.421875 14 4.554688 14.144531 4.695312 C 13.304688 5.597656 12.472656 6.625 11.675781 7.746094 C 10.3125 7.875 9.007812 8.078125 7.808594 8.347656 C 7.730469 8.046875 7.664062 7.746094 7.605469 7.457031 Z M 20.113281 10.539062 C 19.828125 10.046875 19.53125 9.5625 19.234375 9.09375 C 20.15625 9.210938 21.042969 9.363281 21.875 9.554688 C 21.628906 10.355469 21.316406 11.191406 20.949219 12.046875 C 20.6875 11.546875 20.40625 11.046875 20.113281 10.539062 Z M 15.015625 5.578125 C 15.585938 6.195312 16.15625 6.886719 16.71875 7.636719 C 16.152344 7.609375 15.578125 7.59375 15 7.59375 C 14.425781 7.59375 13.855469 7.609375 13.292969 7.636719 C 13.855469 6.894531 14.433594 6.203125 15.015625 5.578125 Z M 9.878906 10.550781 C 9.59375 11.046875 9.320312 11.546875 9.0625 12.046875 C 8.703125 11.191406 8.394531 10.351562 8.140625 9.539062 C 8.96875 9.355469 9.851562 9.203125 10.769531 9.089844 C 10.464844 9.5625 10.167969 10.050781 9.878906 10.550781 Z M 10.796875 17.941406 C 9.847656 17.835938 8.949219 17.691406 8.125 17.511719 C 8.378906 16.6875 8.695312 15.828125 9.0625 14.957031 C 9.324219 15.457031 9.597656 15.957031 9.886719 16.453125 C 10.179688 16.960938 10.484375 17.457031 10.796875 17.941406 Z M 15.046875 21.453125 C 14.460938 20.820312 13.875 20.117188 13.304688 19.367188 C 13.859375 19.386719 14.425781 19.398438 15 19.398438 C 15.589844 19.398438 16.175781 19.386719 16.75 19.359375 C 16.1875 20.125 15.613281 20.828125 15.046875 21.453125 Z M 20.960938 14.910156 C 21.347656 15.792969 21.675781 16.648438 21.933594 17.460938 C 21.09375 17.652344 20.183594 17.804688 19.230469 17.917969 C 19.53125 17.445312 19.828125 16.953125 20.121094 16.445312 C 20.414062 15.933594 20.695312 15.421875 20.960938 14.910156 Z M 19.046875 15.828125 C 18.59375 16.613281 18.128906 17.363281 17.65625 18.070312 C 16.796875 18.128906 15.90625 18.160156 15 18.160156 C 14.097656 18.160156 13.21875 18.136719 12.375 18.078125 C 11.882812 17.363281 11.40625 16.613281 10.957031 15.835938 C 10.507812 15.058594 10.09375 14.277344 9.71875 13.5 C 10.09375 12.722656 10.507812 11.941406 10.953125 11.167969 C 11.402344 10.390625 11.871094 9.644531 12.359375 8.933594 C 13.222656 8.867188 14.105469 8.832031 15 8.832031 C 15.898438 8.832031 16.78125 8.867188 17.644531 8.933594 C 18.125 9.640625 18.59375 10.382812 19.042969 11.160156 C 19.496094 11.945312 19.914062 12.722656 20.292969 13.484375 C 19.914062 14.257812 19.5 15.042969 19.046875 15.828125 Z M 21.601562 2.011719 C 22.574219 2.570312 22.949219 4.828125 22.339844 7.785156 C 22.300781 7.972656 22.257812 8.164062 22.210938 8.359375 C 21.007812 8.082031 19.699219 7.878906 18.332031 7.75 C 17.535156 6.617188 16.710938 5.585938 15.882812 4.695312 C 16.105469 4.480469 16.328125 4.277344 16.546875 4.082031 C 18.6875 2.222656 20.691406 1.488281 21.601562 2.011719 Z M 15 10.886719 C 16.429688 10.886719 17.589844 12.042969 17.589844 13.472656 C 17.589844 14.898438 16.429688 16.058594 15 16.058594 C 13.570312 16.058594 12.410156 14.898438 12.410156 13.472656 C 12.410156 12.042969 13.570312 10.886719 15 10.886719 Z M 15 10.886719 " fill-opacity="1" fill-rule="nonzero"/></g></g></g></g></g></svg>