<svg xmlns="http://www.w3.org/2000/svg" xmlns:xlink="http://www.w3.org/1999/xlink" width="40" zoomAndPan="magnify" viewBox="0 0 30 30.000001" height="40" preserveAspectRatio="xMidYMid meet" version="1.0"><defs><filter x="0%" y="0%" width="100%" height="100%" id="a30796291a"><feColorMatrix values="0 0 0 0 1 0 0 0 0 1 0 0 0 0 1 0 0 0 1 0" color-interpolation-filters="sRGB"/></filter><clipPath id="fb0f9575ab"><path d="M 0.484375 3 L 29.515625 3 L 29.515625 26 L 0.484375 26 Z M 0.484375 3 " clip-rule="nonzero"/></clipPath><mask id="a149e9159d"><g filter="url(#a30796291a)"><rect x="-3" width="36" fill="#000000" y="-3" height="36.000001" fill-opacity="0.9373"/></g></mask><clipPath id="b01310f4bf"><path d="M 0.484375 0.714844 L 29.515625 0.714844 L 29.515625 22.546875 L 0.484375 22.546875 Z M 0.484375 0.714844 " clip-rule="nonzero"/></clipPath><clipPath id="e9106c28fa"><rect x="0" width="30" y="0" height="23"/></clipPath></defs><g clip-path="url(#fb0f9575ab)"><g mask="url(#a149e9159d)"><g transform="matrix(1, 0, 0, 1, 0, 3)"><g clip-path="url(#e9106c28fa)"><g clip-path="url(#b01310f4bf)"><path fill="#fffefb" d="M 25.417969 13.210938 C 24.410156 13.21875 23.542969 13.457031 22.8125 13.8125 C 22.542969 13.285156 22.273438 12.820312 22.226562 12.476562 C 22.175781 12.074219 22.117188 11.828125 22.175781 11.347656 C 22.238281 10.867188 22.519531 10.1875 22.519531 10.132812 C 22.515625 10.082031 22.457031 9.835938 21.878906 9.828125 C 21.300781 9.824219 20.800781 9.941406 20.746094 10.09375 C 20.644531 10.371094 20.566406 10.65625 20.503906 10.945312 C 20.402344 11.472656 19.347656 13.328125 18.746094 14.304688 C 18.550781 13.925781 18.382812 13.589844 18.347656 13.324219 C 18.296875 12.921875 18.234375 12.675781 18.296875 12.195312 C 18.359375 11.714844 18.640625 11.035156 18.640625 10.980469 C 18.636719 10.929688 18.578125 10.683594 18 10.679688 C 17.421875 10.671875 16.921875 10.789062 16.867188 10.941406 C 16.808594 11.09375 16.746094 11.449219 16.625 11.796875 C 16.507812 12.140625 15.101562 15.246094 14.738281 16.054688 C 14.550781 16.464844 14.390625 16.796875 14.273438 17.019531 C 14.152344 17.242188 14.265625 17.035156 14.253906 17.058594 L 14.097656 17.355469 L 14.097656 17.359375 C 14.019531 17.5 13.933594 17.632812 13.894531 17.632812 C 13.867188 17.632812 13.8125 17.257812 13.90625 16.746094 C 14.113281 15.667969 14.621094 13.988281 14.613281 13.925781 C 14.613281 13.898438 14.710938 13.605469 14.289062 13.453125 C 13.878906 13.300781 13.734375 13.554688 13.699219 13.554688 C 13.664062 13.554688 13.636719 13.644531 13.636719 13.644531 C 13.636719 13.644531 14.09375 11.75 12.765625 11.75 C 11.9375 11.75 10.789062 12.648438 10.222656 13.46875 L 7.359375 15.027344 L 7.296875 14.960938 C 5.691406 13.257812 2.722656 12.050781 2.847656 9.761719 C 2.890625 8.929688 3.183594 6.738281 8.550781 4.082031 C 12.945312 1.90625 16.46875 2.503906 17.078125 3.832031 C 17.949219 5.726562 15.199219 9.253906 10.628906 9.761719 C 8.886719 9.957031 7.972656 9.289062 7.742188 9.039062 C 7.5 8.773438 7.464844 8.765625 7.375 8.816406 C 7.230469 8.894531 7.320312 9.128906 7.375 9.265625 C 7.511719 9.617188 8.074219 10.242188 9.027344 10.554688 C 9.863281 10.828125 11.90625 10.980469 14.378906 10.03125 C 17.144531 8.964844 19.308594 6.007812 18.671875 3.535156 C 18.027344 1.019531 13.828125 0.191406 9.859375 1.59375 C 7.496094 2.429688 4.941406 3.734375 3.097656 5.449219 C 0.902344 7.480469 0.554688 9.253906 0.703125 9.992188 C 1.210938 12.621094 4.855469 14.332031 6.316406 15.601562 L 6.113281 15.710938 C 5.382812 16.070312 2.605469 17.515625 1.910156 19.042969 C 1.121094 20.773438 2.03125 22.019531 2.636719 22.1875 C 4.511719 22.707031 6.433594 21.773438 7.472656 20.238281 C 8.503906 18.703125 8.382812 16.710938 7.90625 15.800781 L 7.886719 15.769531 L 8.460938 15.433594 C 8.832031 15.214844 9.195312 15.015625 9.515625 14.839844 C 9.335938 15.328125 9.207031 15.902344 9.140625 16.738281 C 9.0625 17.722656 9.464844 18.992188 10 19.496094 C 10.234375 19.714844 10.515625 19.71875 10.6875 19.71875 C 11.308594 19.71875 11.585938 19.210938 11.898438 18.601562 C 12.277344 17.859375 12.613281 17 12.613281 17 C 12.613281 17 12.195312 19.328125 13.34375 19.328125 C 13.765625 19.328125 14.1875 18.789062 14.378906 18.507812 L 14.378906 18.511719 C 14.378906 18.511719 14.390625 18.496094 14.410156 18.457031 C 14.457031 18.390625 14.480469 18.351562 14.480469 18.351562 L 14.480469 18.339844 C 14.648438 18.050781 15.023438 17.386719 15.585938 16.285156 C 16.308594 14.871094 17.003906 13.09375 17.003906 13.09375 C 17.003906 13.09375 17.074219 13.53125 17.28125 14.246094 C 17.40625 14.667969 17.675781 15.132812 17.882812 15.582031 L 17.613281 15.953125 L 17.617188 15.957031 C 17.472656 16.148438 17.328125 16.332031 17.175781 16.515625 C 16.601562 17.195312 15.917969 17.972656 15.828125 18.195312 C 15.71875 18.457031 15.742188 18.652344 15.949219 18.808594 C 16.101562 18.921875 16.371094 18.945312 16.65625 18.921875 C 17.175781 18.886719 17.535156 18.757812 17.714844 18.679688 C 18.039062 18.566406 18.34375 18.40625 18.621094 18.207031 C 19.183594 17.792969 19.527344 17.207031 19.492188 16.425781 C 19.476562 15.996094 19.335938 15.570312 19.160156 15.171875 L 19.3125 14.945312 C 20.199219 13.65625 20.886719 12.242188 20.886719 12.242188 C 20.886719 12.242188 20.953125 12.675781 21.160156 13.390625 C 21.269531 13.753906 21.480469 14.148438 21.671875 14.539062 C 20.839844 15.214844 20.320312 15.996094 20.140625 16.507812 C 19.808594 17.457031 20.066406 17.886719 20.554688 17.988281 C 20.773438 18.035156 21.089844 17.933594 21.324219 17.832031 C 21.617188 17.738281 21.96875 17.574219 22.296875 17.335938 C 22.855469 16.921875 23.394531 16.347656 23.367188 15.570312 C 23.351562 15.214844 23.253906 14.863281 23.125 14.527344 C 23.832031 14.238281 24.75 14.070312 25.910156 14.210938 C 28.410156 14.5 28.902344 16.050781 28.808594 16.699219 C 28.710938 17.347656 28.191406 17.703125 28.015625 17.816406 C 27.839844 17.921875 27.785156 17.960938 27.800781 18.039062 C 27.824219 18.15625 27.902344 18.148438 28.054688 18.128906 C 28.261719 18.09375 29.367188 17.597656 29.414062 16.402344 C 29.480469 14.867188 28.015625 13.195312 25.417969 13.210938 Z M 6.148438 19.667969 C 5.320312 20.566406 4.160156 20.90625 3.667969 20.617188 C 3.132812 20.308594 3.339844 18.988281 4.355469 18.035156 C 4.972656 17.453125 5.777344 16.917969 6.304688 16.589844 L 6.816406 16.28125 C 6.851562 16.257812 6.871094 16.246094 6.871094 16.246094 C 6.910156 16.226562 6.957031 16.195312 7 16.167969 C 7.378906 17.53125 7.019531 18.726562 6.148438 19.667969 Z M 12.183594 15.589844 C 11.898438 16.289062 11.292969 18.078125 10.925781 17.976562 C 10.613281 17.894531 10.421875 16.539062 10.863281 15.199219 C 11.089844 14.523438 11.566406 13.71875 11.847656 13.40625 C 12.300781 12.90625 12.796875 12.738281 12.917969 12.945312 C 13.066406 13.210938 12.363281 15.152344 12.183594 15.589844 Z M 17.164062 17.957031 C 17.039062 18.015625 16.929688 18.0625 16.878906 18.027344 C 16.835938 18.007812 16.929688 17.921875 16.929688 17.921875 C 16.929688 17.921875 17.550781 17.257812 17.796875 16.949219 L 18.289062 16.332031 L 18.289062 16.398438 C 18.289062 17.203125 17.511719 17.738281 17.164062 17.957031 Z M 21.003906 17.085938 C 20.914062 17.019531 20.925781 16.8125 21.230469 16.164062 C 21.347656 15.90625 21.617188 15.476562 22.082031 15.070312 C 22.136719 15.238281 22.171875 15.398438 22.167969 15.550781 C 22.160156 16.554688 21.441406 16.929688 21.003906 17.085938 Z M 21.003906 17.085938 " fill-opacity="1" fill-rule="nonzero"/></g></g></g></g></g></svg>