<svg xmlns="http://www.w3.org/2000/svg" xmlns:xlink="http://www.w3.org/1999/xlink" width="40" zoomAndPan="magnify" viewBox="0 0 30 30.000001" height="40" preserveAspectRatio="xMidYMid meet" version="1.0"><defs><filter x="0%" y="0%" width="100%" height="100%" id="d09c549729"><feColorMatrix values="0 0 0 0 1 0 0 0 0 1 0 0 0 0 1 0 0 0 1 0" color-interpolation-filters="sRGB"/></filter><clipPath id="8a07c4fb82"><path d="M 0.484375 0 L 29.515625 0 L 29.515625 29.03125 L 0.484375 29.03125 Z M 0.484375 0 " clip-rule="nonzero"/></clipPath><mask id="993631efb5"><g filter="url(#d09c549729)"><rect x="-3" width="36" fill="#000000" y="-3" height="36.000001" fill-opacity="0.9373"/></g></mask><clipPath id="3af2e0e839"><path d="M 0.484375 0.917969 L 29.515625 0.917969 L 29.515625 27.773438 L 0.484375 27.773438 Z M 0.484375 0.917969 " clip-rule="nonzero"/></clipPath><clipPath id="5f95b36fb2"><rect x="0" width="30" y="0" height="30"/></clipPath></defs><g clip-path="url(#8a07c4fb82)"><g mask="url(#993631efb5)"><g transform="matrix(1, 0, 0, 1, 0, 0.000000000000005692)"><g clip-path="url(#5f95b36fb2)"><g clip-path="url(#3af2e0e839)"><path fill="#fffefb" d="M 34.652344 -5.589844 L 34.652344 34.304688 L -0.183594 29.132812 L 34.652344 40.863281 L 46.265625 36.03125 L 46.265625 -0.0390625 L 46.269531 -0.0390625 L 46.265625 -0.046875 L 46.265625 -0.757812 Z M 22.460938 1.207031 L 11.792969 11.753906 L 5.367188 6.917969 L 2.71875 7.800781 L 9.253906 14.261719 L 2.71875 20.722656 L 5.367188 21.605469 L 11.792969 16.765625 L 22.460938 27.3125 L 28.851562 24.597656 L 28.851562 3.921875 Z M 22.460938 8.734375 L 22.460938 19.789062 L 15.121094 14.257812 Z M 22.460938 8.734375 " fill-opacity="1" fill-rule="nonzero"/></g></g></g></g></g></svg>